<svg width="109" height="17" viewBox="0 0 109 17" fill="none" xmlns="http://www.w3.org/2000/svg">
<path d="M4.55701 0.911403H7.71534V16.5H3.88023V5.96473C3.00041 6.8671 1.69196 6.8671 0.586546 6.8671V4.15997C3.54184 4.15997 4.55701 2.60336 4.55701 0.911403ZM16.5643 16.861C11.8945 16.861 9.70621 13.1386 9.70621 8.71698C9.70621 4.29532 11.8945 0.550452 16.5643 0.550452C21.2341 0.550452 23.3998 4.29532 23.3998 8.71698C23.3998 13.1386 21.2341 16.861 16.5643 16.861ZM16.5643 13.7703C18.8428 13.7703 19.5647 11.8076 19.5647 8.71698C19.5647 5.62633 18.8428 3.6411 16.5643 3.6411C14.2858 3.6411 13.5413 5.62633 13.5413 8.71698C13.5413 11.8076 14.2858 13.7703 16.5643 13.7703ZM31.3249 16.861C26.6551 16.861 24.4668 13.1386 24.4668 8.71698C24.4668 4.29532 26.6551 0.550452 31.3249 0.550452C35.9947 0.550452 38.1604 4.29532 38.1604 8.71698C38.1604 13.1386 35.9947 16.861 31.3249 16.861ZM31.3249 13.7703C33.6034 13.7703 34.3253 11.8076 34.3253 8.71698C34.3253 5.62633 33.6034 3.6411 31.3249 3.6411C29.0464 3.6411 28.3019 5.62633 28.3019 8.71698C28.3019 11.8076 29.0464 13.7703 31.3249 13.7703ZM39.2951 4.94955H43.1302L44.9801 8.28835H45.0252L46.8751 4.94955H50.7102L47.1909 10.612L51.1614 16.5H47.1007L45.0252 12.9356H44.9801L42.9046 16.5H38.8439L42.8144 10.612L39.2951 4.94955Z" fill="#EF5A3C"/>
<path d="M57.175 16.5V2.17473H51.8059V0.369976H64.5746V2.17473H59.2054V16.5H57.175ZM70.7585 7.9274C70.7585 7.02502 70.2622 6.258 68.4123 6.258C66.224 6.258 65.5021 6.88966 65.3893 8.55906H63.5846C63.6974 6.34824 65.0735 4.67884 68.4123 4.67884C70.6006 4.67884 72.5632 5.5361 72.5632 8.31091V13.9057C72.5632 14.808 72.7212 15.3043 73.8717 15.169V16.4323C73.3979 16.5902 73.1498 16.6128 72.8114 16.6128C71.7285 16.6128 71.0743 16.3195 70.7585 15.0562H70.7134C69.9915 16.139 68.7056 16.8158 66.8106 16.8158C64.487 16.8158 63.0206 15.4848 63.0206 13.5447C63.0206 10.9278 64.9607 10.251 67.9386 9.68704C69.8787 9.32609 70.7585 9.07793 70.7585 7.9274ZM66.9911 15.2367C69.1342 15.2367 70.7585 14.2666 70.7585 12.0558V10.1382C70.4201 10.4766 69.3147 10.7925 68.0965 11.0406C65.8631 11.5144 64.8253 12.0783 64.8253 13.4545C64.8253 14.5824 65.5021 15.2367 66.9911 15.2367ZM75.2877 0.369976H77.0924V16.5H75.2877V0.369976ZM84.5436 15.2367C86.8446 15.2367 87.7019 13.7477 87.9049 12.9582H89.7097C89.1231 15.1013 87.4763 16.8158 84.6112 16.8158C81.1145 16.8158 78.9939 14.3568 78.9939 10.7473C78.9939 6.91222 81.1596 4.67884 84.521 4.67884C88.1305 4.67884 89.8902 7.13782 89.8902 11.2211H80.7987C80.7987 13.2966 82.0395 15.2367 84.5436 15.2367ZM84.521 6.258C82.3553 6.258 80.7987 7.79204 80.7987 9.64192H88.0854C88.0854 7.79204 86.6867 6.258 84.521 6.258ZM97.3168 4.67884C99.4148 4.67884 101.174 5.82937 101.174 8.46883V16.5H99.3697V8.92002C99.3697 7.43109 98.6704 6.258 96.8656 6.258C94.8353 6.258 93.4817 7.54389 93.4817 9.32609V16.5H91.6769V4.99467H93.4817V6.3708H93.5268C94.1359 5.55866 95.3541 4.67884 97.3168 4.67884ZM108.383 6.57383H106.128V13.4996C106.128 14.808 106.849 15.0336 108.383 14.9208V16.5C107.977 16.5902 107.504 16.6354 107.03 16.6354C105.496 16.6354 104.323 16.0263 104.323 13.6801V6.57383H102.631V4.99467H104.323V1.15956H106.128V4.99467H108.383V6.57383Z" fill="#242424"/>
</svg>
